<mxfile host="app.diagrams.net" agent="Mozilla/5.0 (Macintosh; Intel Mac OS X 10_15_7) AppleWebKit/537.36 (KHTML, like Gecko) Chrome/132.0.0.0 Safari/537.36" version="26.0.10">
  <diagram name="Page-1" id="0pdRyIyrcQ3cvFVmcxQD">
    <mxGraphModel dx="1026" dy="650" grid="1" gridSize="10" guides="1" tooltips="1" connect="1" arrows="1" fold="1" page="1" pageScale="1" pageWidth="850" pageHeight="1100" background="#36454F" math="0" shadow="0">
      <root>
        <mxCell id="0" />
        <mxCell id="1" parent="0" />
        <mxCell id="MQvoL1W2LezNYkycmZLL-2" value="&lt;span style=&quot;background-color: rgb(54, 69, 79);&quot;&gt;&lt;font style=&quot;color: rgb(255, 255, 255);&quot;&gt;docker container&lt;/font&gt;&lt;/span&gt;" style="image;aspect=fixed;perimeter=ellipsePerimeter;html=1;align=center;fontSize=12;verticalAlign=top;fontColor=#364149;shadow=0;dashed=0;image=img/lib/cumulus/container.svg;" vertex="1" parent="1">
          <mxGeometry x="130" y="102" width="202.5" height="180" as="geometry" />
        </mxCell>
        <mxCell id="MQvoL1W2LezNYkycmZLL-1" value="&lt;font style=&quot;color: rgb(255, 255, 255);&quot;&gt;node.js application&lt;/font&gt;" style="outlineConnect=0;dashed=0;verticalLabelPosition=bottom;verticalAlign=top;align=center;html=1;shape=mxgraph.aws3.android;fillColor=#8CC64F;gradientColor=none;" vertex="1" parent="1">
          <mxGeometry x="150" y="150" width="73.5" height="84" as="geometry" />
        </mxCell>
        <mxCell id="MQvoL1W2LezNYkycmZLL-3" value="&lt;font style=&quot;color: rgb(255, 255, 255);&quot;&gt;Amazon Elastic Container Registry&lt;/font&gt;" style="outlineConnect=0;dashed=0;verticalLabelPosition=bottom;verticalAlign=top;align=center;html=1;shape=mxgraph.aws3.ecr_registry;fillColor=#F58534;gradientColor=none;" vertex="1" parent="1">
          <mxGeometry x="660" y="170" width="57" height="60" as="geometry" />
        </mxCell>
        <mxCell id="MQvoL1W2LezNYkycmZLL-4" value="&lt;font style=&quot;color: rgb(255, 255, 255);&quot;&gt;Github Actions Workflow&lt;br&gt;CI/CD Pipeline&lt;/font&gt;" style="sketch=0;outlineConnect=0;fontColor=#232F3E;gradientColor=none;fillColor=#7AA116;strokeColor=none;dashed=0;verticalLabelPosition=bottom;verticalAlign=top;align=center;html=1;fontSize=12;fontStyle=0;aspect=fixed;pointerEvents=1;shape=mxgraph.aws4.iot_analytics_pipeline;" vertex="1" parent="1">
          <mxGeometry x="420" y="172" width="104" height="56" as="geometry" />
        </mxCell>
      </root>
    </mxGraphModel>
  </diagram>
</mxfile>
